<?xml version="1.0" encoding="UTF-8" standalone="no"?>
<!-- Created with Inkscape (http://www.inkscape.org/) -->

<svg
   version="1.1"
   id="svg1"
   width="163.84"
   height="163.84"
   viewBox="0 0 163.84 163.84"
   sodipodi:docname="favicon.svg"
   inkscape:version="1.4.2 (ebf0e940, 2025-05-08)"
   xmlns:inkscape="http://www.inkscape.org/namespaces/inkscape"
   xmlns:sodipodi="http://sodipodi.sourceforge.net/DTD/sodipodi-0.dtd"
   xmlns="http://www.w3.org/2000/svg"
   xmlns:svg="http://www.w3.org/2000/svg">
  <defs
     id="defs1" />
  <sodipodi:namedview
     id="namedview1"
     pagecolor="#ffffff"
     bordercolor="#000000"
     borderopacity="0.25"
     inkscape:showpageshadow="2"
     inkscape:pageopacity="0.0"
     inkscape:pagecheckerboard="0"
     inkscape:deskcolor="#d1d1d1"
     showgrid="false"
     showguides="true"
     inkscape:zoom="3.1463554"
     inkscape:cx="36.391312"
     inkscape:cy="90.739908"
     inkscape:window-width="1680"
     inkscape:window-height="1020"
     inkscape:window-x="0"
     inkscape:window-y="30"
     inkscape:window-maximized="0"
     inkscape:current-layer="svg1" />
  <g
     inkscape:groupmode="layer"
     inkscape:label="Image"
     id="g1">
    <path
       style="fill:#000000;fill-opacity:1;stroke:none"
       d="M 26.079999,135.14421 C 25.727999,135.06855 23.819999,134.64007 21.84,134.19204 17.879094,133.29576 17.869809,133.28655 18.546896,130.92568 18.71569,130.33714 19.440986,126.66609 20.158666,122.7678 20.876346,118.86951 22.459671,110.568 23.677165,104.32 24.89466,98.071998 26.266471,90.943998 26.725634,88.479998 27.714158,83.175299 28.348437,79.959526 28.966279,77.119998 29.215197,75.975998 29.865327,72.663998 30.411011,69.759998 30.956695,66.855999 32.324362,59.727999 33.450272,53.919999 36.721344,37.04619 38.981576,25.287411 39.398725,22.973375 39.611559,21.792731 39.896549,20.647386 40.032036,20.428163 40.617175,19.481387 43.589354,22.092002 49.016873,28.319999 57.692813,38.275513 63.098706,44.319999 63.32649,44.319999 63.46631,44.319999 64.575049,43.156129 65.790354,41.733622 74.890598,31.081837 83.916695,21.380157 85.669244,20.36684 85.930193,20.21596 86.262861,20.21596 86.412387,20.36684 86.561277,20.517078 87.060027,22.871999 87.52072,25.599999 87.981413,28.327999 88.933167,33.583999 89.635729,37.279999 91.272745,45.89192 91.763802,48.529149 92.317036,51.679999 92.564256,53.087999 92.906656,55.031999 93.077924,55.999999 93.345506,57.51236 95.347813,68.119575 99.994398,92.639998 100.59473,95.807998 101.4016,100.128 101.78745,102.24 102.1733,104.352 103.10644,109.176 103.86109,112.96 L 105.23318,119.84 105.25659,74.034235 C 105.27778,32.574279 105.32802,28.210044 105.78617,28.034236 106.44507,27.781393 113.71493,27.781393 114.37383,28.034236 114.83233,28.210182 114.88,32.835535 114.88,77.154235 V 126.08 H 132.46874 C 149.5307,126.08 150.0674,126.09853 150.38874,126.69896 150.57093,127.03939 150.72,128.9011 150.72,130.8361 150.72,133.60778 150.6133,134.46098 150.21714,134.85714 149.76965,135.30463 147.26788,135.36 127.49714,135.36 H 105.28 V 134.60296 C 105.28,133.89663 105.19964,133.86284 104.08,134.09836 103.42,134.23719 102.03109,134.5878 100.99354,134.8775 99.377271,135.32878 99.04296,135.3401 98.659425,134.95657 98.406389,134.70353 97.532512,130.97249 96.649338,126.37446 95.789999,121.9005 94.863974,117.16 94.591505,115.84 94.319036,114.52 93.740923,111.424 93.30681,108.96 92.000386,101.54483 90.904253,95.641142 90.425222,93.439998 89.917406,91.106582 89.273008,87.682834 88.317223,82.239998 87.9618,80.215998 87.538647,77.983998 87.376883,77.279998 87.215119,76.575998 86.927242,75.135998 86.737156,74.079998 86.54707,73.023998 85.907616,69.639998 85.316147,66.559999 84.724678,63.479999 83.995612,59.591999 83.696,57.919999 83.396388,56.247999 82.960889,53.871999 82.728224,52.639999 82.495558,51.407999 81.905277,48.095999 81.416487,45.279999 80.927698,42.463999 80.438949,40.05312 80.33038,39.92249 80.22181,39.79186 79.32839,40.65586 78.345002,41.84249 68.034951,54.28337 66.198587,55.999999 63.199999,55.999999 60.791726,55.999999 59.566043,55.070931 54.527288,49.426085 50.14936,44.521554 47.195397,41.094806 46.669659,40.310834 46.259357,39.698998 46.102815,39.628643 45.978039,39.999999 45.889334,40.263999 45.073681,44.367999 44.165476,49.119999 41.183013,64.725128 40.378285,68.949409 40.23354,69.759998 40.154971,70.199998 39.501934,73.439998 38.782347,76.959998 37.737134,82.072858 35.497591,93.610579 32.943632,107.04 32.809748,107.744 32.248063,110.696 31.695443,113.6 30.793017,118.34222 28.678763,128.85923 27.711776,133.4161 27.331905,135.20622 27.169359,135.37836 26.079999,135.14421 Z"
       id="path1" />
  </g>
</svg>
