<?xml version="1.0" encoding="UTF-8" standalone="no"?>
<!-- Created with Inkscape (http://www.inkscape.org/) -->

<svg
   version="1.1"
   id="svg1"
   width="163.84"
   height="163.84"
   viewBox="0 0 163.84 163.84"
   sodipodi:docname="favicon.svg"
   inkscape:version="1.4.2 (ebf0e940, 2025-05-08)"
   xmlns:inkscape="http://www.inkscape.org/namespaces/inkscape"
   xmlns:sodipodi="http://sodipodi.sourceforge.net/DTD/sodipodi-0.dtd"
   xmlns="http://www.w3.org/2000/svg"
   xmlns:svg="http://www.w3.org/2000/svg">
  <defs
     id="defs1" />
  <sodipodi:namedview
     id="namedview1"
     pagecolor="#ffffff"
     bordercolor="#000000"
     borderopacity="0.25"
     inkscape:showpageshadow="2"
     inkscape:pageopacity="0.0"
     inkscape:pagecheckerboard="0"
     inkscape:deskcolor="#d1d1d1"
     showgrid="false"
     showguides="true"
     inkscape:zoom="3.1463554"
     inkscape:cx="36.391312"
     inkscape:cy="90.739908"
     inkscape:window-width="1680"
     inkscape:window-height="1020"
     inkscape:window-x="0"
     inkscape:window-y="30"
     inkscape:window-maximized="0"
     inkscape:current-layer="svg1" />
  <g
     inkscape:groupmode="layer"
     inkscape:label="Image"
     id="g1">
    <path
       id="path1"
       style="fill:#000000;fill-opacity:1;stroke:none"
       d="M 40.064453,18.261719 C 38.806905,18.365031 38.02863,19.545213 37.845602,20.702714 37.037731,24.374119 36.440968,28.04436 35.697514,31.731517 32.90676,46.175486 30.123912,60.642688 27.335609,75.094844 25.4278,84.122818 23.837634,93.213044 22.039264,102.26334 20.379961,110.73457 18.799319,119.22681 17.183594,127.70898 16.951056,129.06437 16.548624,130.5348 16.252191,131.93421 15.939263,133.4304 16.960516,134.91737 18.390465,135.34913 20.886078,136.1275 23.473774,136.58013 26.01982,137.16667 27.432058,137.52064 28.941131,136.61304 29.308594,135.20898 30.025366,132.5443 30.467463,129.80815 31.053451,127.11083 34.405312,110.62667 37.357593,94.087878 40.694381,77.603974 42.979821,66.456237 44.984456,55.253405 47.179688,44.087891 50.374104,47.735063 53.506257,51.446671 56.910156,54.902344 58.53478,56.541984 60.589198,58.062717 63.008877,57.996314 65.396394,58.149106 67.545937,56.816139 69.202629,55.219601 72.826589,51.763686 75.924289,47.80892 79.154297,43.994141 81.102752,55.08285 83.167092,66.151561 85.317207,77.203187 86.510652,83.019878 87.389166,88.949851 88.643785,94.719922 90.348858,103.22112 91.683597,111.84382 93.4375,120.30273 94.430491,125.19188 95.204971,130.13491 96.517616,134.95232 96.775036,136.4359 98.294822,137.47112 99.767298,137.20012 100.96003,137.02045 102.10666,136.61841 103.2793,136.34375 103.18656,137.0417 103.22121,137.61226 104.0793,137.35938 117.71446,137.3373 131.35025,137.41242 144.98498,137.29388 146.87078,137.20838 148.80737,137.35528 150.64648,136.87305 152.21249,136.38414 152.65376,134.5798 152.67375,133.12055 152.71689,130.83326 152.83075,128.49849 152.34766,126.25 152.01943,124.87509 150.5498,124.27289 149.25586,124.24609 143.95061,123.98358 138.63394,124.13083 133.32383,124.08108 127.84284,124.07875 122.36185,124.08074 116.88086,124.08008 116.8657,96.210055 116.91892,68.339855 116.82849,40.46996 116.76544,36.468336 116.86481,32.455862 116.55872,28.463422 116.51338,27.343125 115.82234,26.153024 114.61914,26.041016 111.92687,25.751704 109.1997,25.824125 106.49652,25.93759 105.46719,25.934119 104.27609,26.247478 103.87759,27.306001 103.33334,28.936728 103.51187,30.704019 103.41166,32.399113 103.20713,46.442658 103.30069,60.488586 103.25559,74.533203 103.25112,82.735026 103.24665,90.936849 103.24219,99.138672 100.38863,83.743748 97.374805,68.377192 94.574231,52.971859 92.831428,43.056794 90.826663,33.188389 89.134766,23.263672 88.784584,21.850436 88.730568,20.278598 87.946787,19.029979 86.91317,17.937799 85.113159,18.068374 84.058594,19.056641 80.977904,21.691772 78.286428,24.744135 75.523886,27.702634 71.362827,32.208999 67.362322,36.859354 63.341797,41.490234 57.929185,35.596699 52.78784,29.460433 47.408108,23.538222 45.660525,21.745479 43.97781,19.782983 41.755859,18.564453 41.223787,18.336766 40.646512,18.172497 40.064453,18.261719 Z" />
  </g>
  <style>
    g { fill: #000; }
    @media (prefers-color-scheme: dark) {
      g { fill: #FFF; }
    }
  </style>
</svg>
