<?xml version="1.0" encoding="UTF-8" standalone="no"?>
<!-- Created with Inkscape (http://www.inkscape.org/) -->

<svg
   version="1.1"
   id="svg1"
   width="801.28003"
   height="167.03999"
   viewBox="0 0 801.28003 167.03999"
   sodipodi:docname="logo.svg"
   inkscape:version="1.4.2 (ebf0e940, 2025-05-08)"
   xmlns:inkscape="http://www.inkscape.org/namespaces/inkscape"
   xmlns:sodipodi="http://sodipodi.sourceforge.net/DTD/sodipodi-0.dtd"
   xmlns="http://www.w3.org/2000/svg"
   xmlns:svg="http://www.w3.org/2000/svg">
  <defs
     id="defs1" />
  <sodipodi:namedview
     id="namedview1"
     pagecolor="#ffffff"
     bordercolor="#000000"
     borderopacity="0.25"
     inkscape:showpageshadow="2"
     inkscape:pageopacity="0.0"
     inkscape:pagecheckerboard="0"
     inkscape:deskcolor="#d1d1d1"
     showgrid="false"
     inkscape:zoom="0.95213544"
     inkscape:cx="499.40374"
     inkscape:cy="205.32793"
     inkscape:window-width="1680"
     inkscape:window-height="992"
     inkscape:window-x="0"
     inkscape:window-y="58"
     inkscape:window-maximized="0"
     inkscape:current-layer="g1" />
  <g
     inkscape:groupmode="layer"
     inkscape:label="Image"
     id="g1">
    <path
       style="fill:#000000"
       d="M 226.10785,155.63434 C 219.6767,154.75202 212.11729,152.11747 207.20225,149.04549 202.22294,145.93334 195.43116,139.95054 192.64001,136.21775 L 191.52001,134.7199 183.88749,134.75143 C 178.63841,134.77311 176.14298,134.67096 175.89633,134.42431 175.69907,134.22706 175.30242,133.24089 175.01488,132.23283 174.32435,129.81198 171.47806,120.31098 170.29568,116.48 L 169.35743,113.44 H 148.91872 128.48 L 126.94402,118.56 C 126.09923,121.376 124.701,126.11502 123.83686,129.09116 122.97271,132.0673 122.12333,134.64467 121.94934,134.81865 121.64577,135.12223 116.44572,134.20081 114.5937,133.51527 114.06842,133.32083 113.16565,133.41511 111.72337,133.81504 109.26459,134.49684 108.58704,134.37021 108.35488,133.18549 106.34428,122.92512 104.03232,110.75102 102.8731,104.32 102.06411,99.831996 101.13775,94.863996 100.81451,93.279996 100.49127,91.695996 99.999179,89.175996 99.720976,87.679996 99.442774,86.183997 98.642766,81.935997 97.943182,78.239997 93.614297,55.369912 93.141376,52.82824 91.840186,45.439998 91.297748,42.359998 90.7518,39.598936 90.626969,39.304303 90.449009,38.884275 89.812704,39.464796 87.680003,41.992912 86.184003,43.76628 84.816003,45.378812 84.640003,45.576317 84.464003,45.773823 83.532204,46.867949 82.569337,48.007708 77.941535,53.485708 75.934514,55.039998 73.488693,55.039998 71.025519,55.039998 69.749603,54.079822 64.766727,48.476385 60.130465,43.262726 57.425536,40.119981 56.912458,39.350833 L 56.384914,38.559998 56.192261,39.359998 C 55.909894,40.532542 53.701844,51.810002 52.025782,60.639998 51.224005,64.863997 50.209904,70.047997 49.772223,72.159997 48.866367,76.531149 48.222316,79.859202 45.282518,95.359996 44.130934,101.432 43.046634,106.976 42.872961,107.68 42.699289,108.384 42.345227,110.184 42.086158,111.68 41.225077,116.65232 39.954422,123.06535 37.964915,132.47999 37.521962,134.57612 37.675002,134.55568 32.110554,133.2617 28.534638,132.43013 28.480001,132.40376 28.480001,131.50954 28.480001,131.01021 28.619466,130.23484 28.789922,129.7865 28.960379,129.33817 29.829065,124.97279 30.720335,120.08567 31.611606,115.19855 33.122352,107.24 34.077548,102.4 35.032745,97.559996 36.264952,91.223996 36.815785,88.319996 37.366618,85.415997 38.653518,78.791997 39.675564,73.599997 40.69761,68.407997 41.912785,62.143998 42.375953,59.679998 42.839122,57.215998 43.272749,54.911998 43.339569,54.559998 43.406389,54.207998 43.972034,51.327998 44.596559,48.159998 46.101712,40.524869 49.151092,24.709897 49.638047,22.013374 50.111353,19.392437 50.292094,19.07184 51.143959,19.342212 52.028296,19.62289 55.78638,23.344021 59.564543,27.679999 67.344556,36.608666 73.344103,43.365439 73.542546,43.422217 73.662147,43.456438 74.24331,42.880438 74.834019,42.142217 76.418807,40.161676 84.05886,31.52763 88.615675,26.567527 94.051552,20.650562 95.945251,18.930619 96.587239,19.327389 96.749698,19.427794 97.127776,20.916206 97.427413,22.634972 98.891679,31.034256 99.645799,35.181652 100.64308,40.319998 101.24086,43.399998 102.17532,48.439998 102.71966,51.519998 103.68316,56.971739 105.95508,69.105303 106.55439,71.999997 106.71837,72.791997 107.36028,76.175997 107.98086,79.519997 108.60145,82.863997 109.83952,89.487996 110.73213,94.239996 111.62474,98.991996 112.5675,104.104 112.82715,105.6 113.0868,107.096 113.52411,109.4 113.79896,110.72 114.0738,112.04 114.6348,114.75332 115.04561,116.7496 115.45642,118.74588 115.86152,120.44817 115.94582,120.53248 116.03013,120.61678 116.20246,120.20746 116.32879,119.62288 116.45512,119.03829 116.97995,117.49432 117.49507,116.19182 118.01019,114.88933 118.31654,113.71352 118.17583,113.57892 118.03513,113.44432 117.56,113.28599 117.12,113.22709 116.35362,113.1245 116.3198,113.02588 116.31508,110.88 116.31238,109.648 116.38438,107.632 116.47508,106.4 L 116.64,104.16 117.76,104.10756 C 118.376,104.07872 119.48798,104.04272 120.23107,104.02756 L 121.58213,104 122.10422,102.16 C 123.55037,97.063374 128.4921,80.540771 130.40694,74.399997 131.17527,71.935997 132.23309,68.479997 132.75766,66.719997 133.28222,64.959997 134.31053,61.575998 135.0428,59.199998 135.77506,56.823998 137.0939,52.431998 137.97356,49.439998 139.58247,43.96754 141.23772,38.555243 143.85724,30.201631 144.63651,27.716528 145.47645,25.515325 145.72377,25.310069 146.01906,25.065005 147.29601,24.968311 149.44304,25.028437 L 152.71263,25.119999 153.13274,26.239999 C 153.36381,26.855999 154.3558,30.023999 155.33718,33.279999 156.31855,36.535999 158.2022,42.727998 159.52306,47.039998 160.84392,51.351998 162.73156,57.615998 163.71782,60.959998 164.70408,64.303997 166.13612,69.055997 166.90014,71.519997 169.22751,79.025937 174.2728,95.554982 175.78865,100.64 176.57564,103.28 177.94703,107.744 178.83617,110.56 179.72532,113.376 180.61239,116.30653 180.80744,117.0723 181.00249,117.83806 181.22517,118.4015 181.3023,118.32437 181.37942,118.24724 181.46473,99.188709 181.49186,75.97207 181.51899,52.755431 181.62643,32.391999 181.7306,30.719999 L 181.92001,27.679999 187.84001,27.731165 C 193.00276,27.775786 194.14886,27.883661 196.80001,28.574517 203.31305,30.271736 209.12772,33.742206 214.57906,39.185907 218.6647,43.265819 220.88691,46.265766 223.03209,50.597349 224.64281,53.849725 226.56001,59.020559 226.56001,60.112391 226.56001,60.469801 226.70401,60.851224 226.88001,60.959998 227.05601,61.068772 227.20001,61.572772 227.20001,62.079998 227.20001,63.668747 227.67922,63.391155 228.48057,61.338211 228.90527,60.250194 229.56534,58.783998 229.9474,58.079998 230.32945,57.375998 230.91491,56.295998 231.24841,55.679998 237.89932,43.395378 251.60836,33.142371 266.56001,29.270431 272.88427,27.632672 274.67587,27.532175 297.66113,27.525861 311.53697,27.52205 319.07142,27.408061 319.20001,27.199999 319.41334,26.85482 327.2737,26.744168 328.13384,27.074235 328.59235,27.250182 328.64001,31.875535 328.64001,76.194233 V 125.11999 H 346.22875 C 363.29072,125.11999 363.82742,125.13853 364.14875,125.73896 364.56295,126.51289 364.57798,133.10937 364.16704,133.75999 363.9048,134.17517 360.7832,134.2761 341.05193,134.50736 310.85014,134.86133 311.05653,134.863 307.37812,134.23561 293.5288,131.87351 281.77514,122.75633 276.30434,110.13205 274.90687,106.90728 273.75951,103.16271 273.05274,99.519996 272.61217,97.249302 272.49485,93.549137 272.3425,77.119997 L 272.16001,57.439998 268.80001,57.279998 265.44001,57.119998 265.55655,52.799998 C 265.63079,50.047801 265.80499,48.394676 266.03655,48.244898 266.23645,48.115593 267.73201,48.007593 269.36001,48.004898 271.94791,48.000614 272.32522,47.9296 272.36144,47.439998 272.43662,46.42377 272.26569,37.602027 272.16891,37.503724 272.00516,37.337393 266.98489,38.696252 264.56064,39.563088 252.56801,43.851281 242.26935,53.291421 237.65334,64.227341 233.67333,73.656473 232.90084,83.277338 235.33344,93.119996 236.72499,98.750408 239.2592,104.14279 242.88691,109.19255 246.51889,114.24825 252.65224,119.42929 258.46952,122.35568 262.24097,124.25291 269.41658,126.36996 272.16001,126.39485 272.68801,126.39964 273.66001,126.55353 274.32001,126.73682 L 275.52001,127.07008 V 130.83387 C 275.52001,135.77726 275.46768,135.85063 272.14229,135.56953 264.09193,134.88903 255.89347,132.17444 249.55121,128.08941 242.86581,123.78335 236.40336,117.21057 232.30946,110.55328 228.86518,104.95237 225.71446,96.359168 225.09383,90.873538 224.97387,89.813213 224.74751,88.866436 224.5908,88.769587 224.4341,88.672739 223.92696,89.431961 223.46384,90.456748 219.86905,98.411093 210.9278,107.38244 202.88001,111.10987 198.78571,113.00618 197.84662,113.36268 195.16441,114.03888 193.61275,114.43007 192.26407,114.82926 192.16735,114.92598 191.9015,115.19184 193.53617,119.86576 194.77821,122.39103 198.78956,130.54682 206.99171,138.7191 215.36001,142.89788 221.28335,145.85576 228.67073,147.51999 235.87709,147.51999 238.29992,147.51999 240.3509,147.63109 240.43482,147.76688 240.51875,147.90267 240.68412,149.52267 240.80231,151.36688 241.11053,156.17599 241.35277,155.98589 234.82645,156.05672 231.6297,156.09142 228.24383,155.92739 226.10785,155.63434 Z M 318.76403,125.20398 C 318.92012,125.04789 319.00708,110.0645 318.96149,91.182521 L 318.88001,57.439998 300.40001,57.357398 281.92001,57.274799 V 75.654242 C 281.92001,86.737562 282.05389,95.027369 282.25727,96.536841 283.57754,106.33595 288.52726,114.61419 296.14763,119.768 300.7628,122.88934 305.32347,124.56391 311.52001,125.41236 314.02685,125.7556 318.33637,125.63164 318.76403,125.20398 Z M 197.44001,103.21852 C 201.82518,101.35775 204.88659,99.22245 208.42594,95.555954 214.03531,89.745081 217.17066,83.03751 218.26684,74.502993 219.56748,64.376515 214.70837,51.979138 206.51171,44.51135 202.71902,41.055919 196.58821,37.879335 192.5404,37.272328 L 191.04001,37.04733 V 70.95033 C 191.04001,89.596979 191.11646,104.92978 191.2099,105.02322 191.45977,105.27309 195.04689,104.234 197.44001,103.21852 Z M 166.72001,103.76047 C 166.72001,103.62873 166.15456,101.79273 165.46347,99.680467 164.77237,97.568208 163.63328,93.823996 162.93215,91.359996 162.23102,88.895996 161.0119,84.719997 160.22301,82.079997 159.43411,79.439997 158.40344,75.983997 157.93263,74.399997 157.46182,72.815997 156.95253,71.231997 156.80088,70.879997 156.64923,70.527997 156.21416,69.159997 155.83405,67.839997 154.29466,62.494162 152.41308,56.195239 150.57667,50.239998 150.16963,48.919998 149.73939,47.423169 149.62058,46.913712 149.49786,46.387435 149.28665,46.111056 149.13149,46.273712 148.86472,46.553383 147.18972,51.800589 144.59659,60.479998 143.88672,62.855997 142.46446,67.463997 141.43603,70.719997 140.40759,73.975997 139.11207,78.223997 138.55709,80.159997 138.00212,82.095997 136.84283,85.943732 135.98091,88.710521 135.11899,91.477309 134.12632,94.789309 133.77498,96.07052 133.11633,98.472395 132.00942,102.3221 131.66971,103.39245 131.4819,103.98416 131.93623,104 149.09844,104 158.7903,104 166.72001,103.89221 166.72001,103.76047 Z M 319.04001,42.399998 V 36.799999 H 300.48001 281.92001 V 42.399998 47.999998 H 300.48001 319.04001 Z M 493.23501,134.23494 C 492.29964,133.75005 492.09608,133.29984 490.29696,127.73697 489.23379,124.44964 487.98198,120.464 487.51515,118.88 485.79409,113.04013 485.3139,111.83758 484.72002,111.88 484.41202,111.902 475.26802,111.93806 464.40002,111.96015 L 444.64002,112.0003 443.40979,116.08015 C 442.15649,120.23655 441.45297,122.60283 440.96002,124.32 439.38471,129.80742 438.16354,133.78314 438.00446,133.94221 437.91247,134.0342 426.92013,134.10249 413.57703,134.09397 394.57241,134.08183 389.25551,133.99199 389.03373,133.67924 388.87047,133.44901 388.83149,110.92784 388.94166,80.479997 389.12094,30.934941 389.16684,27.65364 389.68636,27.252418 390.09799,26.934518 391.18529,26.856228 393.92507,26.947215 395.95185,27.014523 397.78785,27.179433 398.00507,27.313681 398.31552,27.505551 398.40001,37.951478 398.40001,76.141578 V 124.72539 L 399.12001,124.85685 C 400.50557,125.10983 430.15134,124.85654 430.40461,124.58956 430.54526,124.4413 430.97578,123.24 431.36133,121.92 431.74688,120.6 432.6141,117.864 433.2885,115.84 L 434.51467,112.16 433.25734,112.0616 432.00002,111.9632 431.98487,109.9816 C 431.97653,108.89172 431.90077,107.28 431.8165,106.4 431.73224,105.52 431.74558,104.332 431.84615,103.76 L 432.02902,102.72 H 434.72842 C 437.40893,102.72 437.42929,102.71384 437.63804,101.84 437.75366,101.356 437.95516,100.816 438.0858,100.64 438.21644,100.464 439.07165,97.727996 439.98627,94.559996 440.90088,91.391996 442.20002,87.071997 442.87324,84.959997 445.29185,77.372396 445.51935,76.633293 445.58187,76.159997 445.61674,75.895997 445.73141,75.463997 445.83668,75.199997 445.94196,74.935997 447.06133,71.335997 448.32417,67.199997 449.58701,63.063997 451.10658,58.095998 451.70097,56.159998 453.24805,51.121056 457.57566,36.696157 458.27719,34.239999 458.60394,33.095999 459.496,30.287999 460.25954,27.999999 L 461.6478,23.839999 464.59769,23.554911 C 466.52208,23.368931 467.79308,23.38252 468.25379,23.594002 468.99378,23.933679 469.41603,25.027684 471.37474,31.679999 471.91886,33.527999 472.92454,36.839999 473.60958,39.039998 474.29461,41.239998 475.85706,46.423998 477.08168,50.559998 479.13917,57.508924 480.43879,61.85106 483.88187,73.279997 484.59766,75.655997 485.68075,79.255997 486.28874,81.279997 487.35434,84.827408 488.5327,88.704841 490.08143,93.759996 490.48584,95.079996 491.13541,97.239996 491.52493,98.559996 492.41564,101.57842 493.00054,103.48507 495.05892,110.08 496.83549,115.77203 499.1577,123.55357 499.42786,124.71999 499.62451,125.56902 500.04583,125.60141 502.51775,124.95756 508.172,123.48481 513.37523,118.89801 515.76894,113.27623 519.88203,103.61641 519.33738,92.525165 514.39208,85.237861 513.19169,83.468978 510.43968,80.665672 506.92685,77.633479 497.31634,69.337905 494.40713,64.370974 493.88091,55.359998 493.25364,44.618708 498.82905,33.681023 507.14561,29.337678 510.57842,27.544884 513.30781,26.879999 517.23452,26.879999 L 520.64002,26.879999 V 31.314942 35.749884 L 517.52401,36.103841 C 510.57136,36.893615 506.06341,41.009236 504.14332,48.319998 503.41071,51.109439 503.39149,56.212062 504.10455,58.614572 505.34352,62.789023 509.42862,67.997235 514.72002,72.148532 516.92557,73.878867 521.38065,78.545969 522.673,80.479997 526.84603,86.725011 528.14774,91.479662 528.14854,100.48 528.14903,105.97558 528.083,106.65235 527.22754,109.92 526.7207,111.856 525.89516,114.3436 525.39302,115.44801 524.89087,116.55242 524.48002,117.5167 524.48002,117.59086 524.48002,117.89786 522.03952,121.88029 520.90395,123.42633 520.23079,124.34282 519.68002,125.17082 519.68002,125.26633 519.68002,125.62103 525.01654,125.41725 526.56002,125.00361 534.51955,122.87053 540.40487,115.27448 541.90013,105.20448 542.5179,101.04398 542.524,99.239107 541.93341,95.359996 540.93221,88.783957 538.66628,84.71683 533.27316,79.815673 524.0193,71.405954 521.74097,68.739802 519.86665,64.127077 518.21193,60.054764 517.57698,53.192322 518.41696,48.458769 520.80457,35.003731 529.93112,26.559999 542.08661,26.559999 545.17178,26.559999 545.11697,26.453538 544.80615,31.842437 L 544.5805,35.754621 541.75463,35.915745 C 535.49443,36.272685 530.94638,40.099661 528.75431,46.854907 528.0457,49.038619 527.9096,50.061066 527.87774,53.439998 527.83399,58.07976 528.2586,59.858784 530.14615,62.944181 531.61485,65.344915 533.07652,66.887833 538.39326,71.649733 540.63451,73.657087 543.46411,76.465087 544.68127,77.889732 548.73035,82.629065 551.36436,89.31648 551.79885,95.960388 551.89526,97.434604 552.04061,98.707257 552.12186,98.788506 552.20311,98.869755 552.4998,98.167579 552.78116,97.228114 555.91814,86.753887 556.60823,84.43942 556.96386,83.199997 557.49397,81.352464 558.63896,77.610637 560.09727,72.959997 560.73194,70.935997 561.9064,67.119997 562.70716,64.479997 563.50793,61.839998 564.36881,59.031998 564.62023,58.239998 564.87164,57.447998 565.52528,55.287998 566.07276,53.439998 566.62023,51.591998 568.01257,47.055998 569.16684,43.359998 570.32111,39.663998 571.45287,35.991999 571.68187,35.199999 574.2798,26.214696 575.28274,23.375171 575.87904,23.316922 576.4366,23.262457 577.65559,23.262457 580.45068,23.316922 L 582.66133,23.359999 583.67823,26.639999 C 584.23752,28.443999 584.98054,30.855999 585.32938,31.999999 585.67822,33.143999 586.04758,34.295999 586.15016,34.559999 586.25275,34.823999 586.36977,35.18985 586.41021,35.373002 586.55587,36.032774 589.82811,47.020486 591.83838,53.599998 592.96763,57.295998 594.85055,63.487997 596.02265,67.359997 602.99606,90.396568 608.7937,108.95908 608.85967,108.46071 608.89321,108.20732 608.98107,89.667643 609.0549,67.261435 609.13656,42.480505 609.30687,26.405152 609.48968,26.222338 610.1099,25.602119 623.81739,29.023572 631.66893,31.758382 639.97729,34.652309 649.96665,39.81565 656.35916,44.520367 657.52469,45.378164 658.53269,46.080039 658.59916,46.080088 658.66564,46.080137 658.72002,41.652138 658.72002,36.240088 V 26.399999 L 663.23378,26.311495 C 666.68703,26.243785 667.8306,26.323063 668.10103,26.64892 668.34553,26.943515 668.48036,31.805717 668.53831,42.417424 668.58439,50.855839 668.69813,58.839998 668.79106,60.159998 L 668.96002,62.559997 670.03972,60.006896 C 673.2771,52.351603 676.27019,47.843708 681.73933,42.386089 691.34738,32.798283 703.35772,27.276531 716.84134,26.247948 722.60618,25.808183 759.19841,25.810988 760.02107,26.251258 760.58597,26.553585 760.64003,26.958837 760.64003,30.891258 V 35.199999 H 741.44003 722.24003 V 40.7975 46.395002 L 741.52003,46.4775 760.80003,46.559998 V 51.039998 55.519998 L 741.41697,55.602454 722.03392,55.684911 721.95589,72.596805 C 721.8721,90.75786 722.04395,93.959699 723.39238,99.359996 726.73988,112.76641 736.84345,121.96383 750.47178,124.01077 752.19,124.26884 754.89002,124.47999 756.47182,124.47999 759.30679,124.47999 759.35083,124.49194 759.55796,125.31722 759.80345,126.29533 759.49631,132.77152 759.19008,133.07418 758.77528,133.48415 749.87799,133.17876 746.88003,132.65165 734.21032,130.42403 722.55829,121.59317 717.30857,110.24 715.23815,105.76245 713.53512,100.04687 712.97024,95.679996 712.79949,94.359996 712.65534,84.824868 712.64991,74.490823 L 712.64003,55.70165 709.20003,55.610824 705.76003,55.519998 705.6702,51.404624 C 705.60993,48.643435 705.7018,47.142944 705.94938,46.844624 706.21877,46.520037 707.17174,46.399998 709.47921,46.399998 L 712.64003,46.399998 V 41.300117 36.200236 L 711.44003,36.381471 C 708.04706,36.893907 700.8674,39.704444 697.44303,41.860711 696.73738,42.305047 695.58403,43.034075 694.88003,43.480773 693.80508,44.162844 688.83429,48.340875 688.32003,48.994561 688.23203,49.10642 687.51203,49.954927 686.72003,50.880132 683.77532,54.320101 682.48683,56.256969 680.65308,59.999998 677.38728,66.666097 676.49358,70.482052 676.26883,78.719997 676.12233,84.089852 676.19092,85.502996 676.76074,88.853968 677.55819,93.543629 678.25738,95.693124 680.49041,100.32 684.95144,109.56334 691.51471,116.30342 700.39526,120.76109 705.0156,123.08031 707.59592,123.81835 715.07826,124.96085 716.89895,125.23886 717.14286,125.90571 716.89742,129.9345 716.6448,134.08103 716.54185,134.19534 713.31416,133.91333 698.96089,132.65923 684.10616,123.6066 675.78063,111.04 673.10865,107.00689 670.42424,101.74871 669.43168,98.603776 669.03294,97.340359 668.6752,96.345656 668.63671,96.393325 668.54437,96.507656 668.17322,109.19553 667.87283,122.50647 667.67667,131.19886 667.54771,133.22636 667.17607,133.46157 666.3919,133.95786 658.6286,133.61524 658.0732,133.05983 657.9691,132.95574 658.0342,126.91469 658.21786,119.63528 658.40152,112.35587 658.61623,95.89865 658.69499,83.063672 658.85046,57.730599 658.92303,58.881316 657.07052,57.305482 656.56975,56.879498 655.4299,55.871498 654.53753,55.065482 650.37569,51.306389 638.01424,44.051294 632.44781,42.100737 631.23353,41.675236 629.23305,40.951482 628.0023,40.492397 626.77156,40.033311 624.39556,39.292763 622.7223,38.846734 621.04905,38.400704 619.42802,37.964018 619.12002,37.876321 618.5885,37.724979 618.55977,40.138485 618.55512,85.338433 618.55243,111.53029 618.43391,133.14327 618.29174,133.36726 618.09409,133.6787 616.60808,133.754 611.97664,133.68726 L 605.92002,133.59999 605.18236,131.35999 C 604.77664,130.12799 603.95431,127.46399 603.35495,125.43999 602.75559,123.416 601.58619,119.49095 600.75628,116.71766 L 599.24735,111.67533 578.7488,111.75766 558.25025,111.84 557.37373,114.72 C 556.89164,116.304 555.83389,119.832 555.02317,122.56 551.45829,134.55551 551.75859,133.76231 550.79071,133.73922 550.31183,133.72779 548.26402,133.25979 546.24002,132.69922 542.64342,131.70309 542.55804,131.65824 542.4726,130.71999 542.42453,130.19199 542.73289,128.64399 543.15786,127.27999 543.58283,125.91599 543.90899,124.79999 543.88265,124.79999 543.85631,124.79999 542.87297,125.72014 541.69745,126.84476 536.43579,131.87858 529.46389,134.69664 522.23122,134.71307 517.88405,134.72294 517.76002,134.60724 517.76002,130.54185 517.76002,128.79183 517.69544,127.35999 517.61651,127.35999 517.53757,127.35999 517.06957,127.73601 516.57651,128.19558 515.28531,129.39906 511.23482,131.71081 508.80653,132.63017 505.17905,134.00354 503.00089,134.42024 498.56002,134.59039 494.96599,134.7281 494.07113,134.66837 493.23501,134.23494 Z M 482.65637,102.51698 C 482.73633,102.43701 482.44751,101.26198 482.01453,99.90579 481.58155,98.549603 481.11181,97.007996 480.97065,96.479996 480.56351,94.957065 479.21692,90.469814 477.65761,85.439997 476.86646,82.887997 476.07454,80.295997 475.89778,79.679997 475.72102,79.063997 475.05148,76.831997 474.40991,74.719997 472.40338,68.114699 471.32139,64.515136 471.04329,63.519997 469.03983,56.35094 465.48671,45.119998 465.22211,45.119998 465.01836,45.119998 463.61087,49.393802 461.32284,56.959998 460.87045,58.455998 459.54274,62.775997 458.37239,66.559997 457.20203,70.343997 456.12842,73.871997 455.98659,74.399997 455.32527,76.861899 454.98715,77.969537 454.71669,78.559997 454.55545,78.911997 454.21573,79.991997 453.96175,80.959997 453.70777,81.927997 452.97341,84.447997 452.32984,86.559997 451.68627,88.671996 450.96124,91.119996 450.71865,91.999996 450.17666,93.966122 448.54965,99.20148 447.91294,101.02817 447.65449,101.76966 447.52629,102.45961 447.62806,102.56138 447.84382,102.77713 482.44006,102.73328 482.65637,102.51698 Z M 596.29307,100.88 C 596.03109,100.044 595.32767,97.703996 594.72991,95.679996 593.30562,90.857293 592.35724,87.721207 590.90748,83.039997 588.04863,73.808863 587.45208,71.871033 585.93268,66.879997 585.04863,63.975997 584.19282,61.167998 584.03088,60.639998 583.86893,60.111998 583.41966,58.599998 583.03249,57.279998 582.64532,55.959998 581.58317,52.504255 580.67216,49.600569 L 579.01578,44.321141 578.01843,47.200569 C 577.46989,48.784255 576.27258,52.527998 575.35773,55.519998 574.44289,58.511998 573.04113,63.047997 572.24272,65.599997 569.27573,75.083483 566.98941,82.681548 563.76913,93.759996 563.07848,96.135996 562.18927,99.051996 561.79312,100.24 L 561.07285,102.4 H 578.92113 596.76941 Z"
       id="path1" />
  </g>
</svg>
